<mxfile host="app.diagrams.net" modified="2024-02-03T08:44:27.228Z" agent="Mozilla/5.0 (Windows NT 10.0; Win64; x64) AppleWebKit/537.36 (KHTML, like Gecko) Chrome/120.0.0.0 Safari/537.36" version="23.1.1" etag="v2Xp77ZSZvN0osFRvyBn" type="github">
  <diagram name="Page-1" id="z4rczib-LkPRxgJOSu4e">
    <mxGraphModel>
      <root>
        <mxCell id="0" />
        <mxCell id="1" parent="0" />
      </root>
    </mxGraphModel>
  </diagram>
</mxfile>
